<mxfile host="app.diagrams.net" modified="2023-12-29T07:31:07.630Z" agent="Mozilla/5.0 (Windows NT 10.0; Win64; x64) AppleWebKit/537.36 (KHTML, like Gecko) Chrome/120.0.0.0 Safari/537.36" version="22.1.15" etag="_JYYsTZpNPVcOkY5PhnI" type="github">
  <diagram name="페이지-1" id="qW2DAxqP53eGFDe079lA">
    <mxGraphModel>
      <root>
        <mxCell id="0" />
        <mxCell id="1" parent="0" />
      </root>
    </mxGraphModel>
  </diagram>
</mxfile>
